<svg
      id="Component_13_3"
      data-name="Component 13 – 3"
      xmlns="http://www.w3.org/2000/svg"
      width="140.036"
      height="137.422"
      viewBox="0 0 140.036 137.422"
      className={className}
    >
      <g transform="translate(51.756 45.943) rotate(90)">
        <path
          d="M46.006,17.252V11.5A11.5,11.5,0,0,0,34.5,0h-23A11.5,11.5,0,0,0,0,11.5v5.751"
          transform="translate(0 34.504)"
          fill="#fff"
          stroke="#ff4900"
          stroke-linejoin="round"
          stroke-width="4"
        />
        <path
          d="M23,11.5A11.5,11.5,0,1,1,11.5,0,11.5,11.5,0,0,1,23,11.5Z"
          transform="translate(11.501)"
          fill="#fff"
          stroke="#ff4900"
          stroke-linejoin="round"
          stroke-width="4"
        />
      </g>
      <g transform="matrix(-0.017, -1, 1, -0.017, 88.252, 91.173)">
        <path
          d="M46.006,17.252V11.5A11.5,11.5,0,0,0,34.5,0h-23A11.5,11.5,0,0,0,0,11.5v5.751"
          transform="translate(0 34.504)"
          fill="#fff"
          stroke="#ff4900"
          stroke-linejoin="round"
          stroke-width="4"
        />
        <path
          d="M23,11.5A11.5,11.5,0,1,1,11.5,0,11.5,11.5,0,0,1,23,11.5Z"
          transform="translate(11.501 0)"
          fill="#fff"
          stroke="#ff4900"
          stroke-linejoin="round"
          stroke-width="4"
        />
      </g>
      <g transform="translate(47.43 85.666)">
        <path
          d="M52.006,39.752V34A11.5,11.5,0,0,0,40.5,22.5h-23A11.5,11.5,0,0,0,6,34v5.751"
          transform="translate(-6 12.004)"
          fill="#fff"
          stroke="#ff4900"
          stroke-linejoin="round"
          stroke-width="4"
        />
        <path
          d="M35,16A11.5,11.5,0,1,1,23.5,4.5,11.5,11.5,0,0,1,35,16Z"
          transform="translate(-0.499 -4.5)"
          fill="#fff"
          stroke="#ff4900"
          stroke-linejoin="round"
          stroke-width="4"
        />
      </g>
      <g transform="translate(93.437 51.756) rotate(-180)">
        <path
          d="M46.006,17.252V11.5A11.5,11.5,0,0,0,34.5,0h-23A11.5,11.5,0,0,0,0,11.5v5.751"
          transform="translate(0 34.504)"
          fill="#fff"
          stroke="#ff4900"
          stroke-linejoin="round"
          stroke-width="4"
        />
        <path
          d="M23,11.5A11.5,11.5,0,1,1,11.5,0,11.5,11.5,0,0,1,23,11.5Z"
          transform="translate(11.501 0)"
          fill="#fff"
          stroke="#ff4900"
          stroke-linejoin="round"
          stroke-width="4"
        />
      </g>
    </svg>